{
  "accessors": [
    {
      "bufferView": 2,
      "componentType": 5126,
      "count": 5017,
      "max": [
        15.669899940490723,
        99.90991973876953,
        4.3541131019592285
      ],
      "min": [
        -35.33380126953125,
        -80.17659759521484,
        -74.59387969970703
      ],
      "type": "VEC3"
    },
    {
      "bufferView": 2,
      "byteOffset": 60204,
      "componentType": 5126,
      "count": 5017,
      "max": [
        1.0,
        1.0,
        1.0
      ],
      "min": [
        -1.0,
        -0.9999729990959167,
        -1.0
      ],
      "type": "VEC3"
    },
    {
      "bufferView": 3,
      "componentType": 5126,
      "count": 5017,
      "max": [
        1.0,
        1.0,
        1.0,
        1.0
      ],
      "min": [
        -1.0,
        -0.999998152256012,
        -0.999556839466095,
        -1.0
      ],
      "type": "VEC4"
    },
    {
      "bufferView": 1,
      "componentType": 5126,
      "count": 5017,
      "max": [
        0.9989644289016724,
        0.996407687664032
      ],
      "min": [
        0.0010356300044804811,
        0.0010356300044804811
      ],
      "type": "VEC2"
    },
    {
      "bufferView": 0,
      "componentType": 5125,
      "count": 14958,
      "type": "SCALAR"
    },
    {
      "bufferView": 2,
      "byteOffset": 120408,
      "componentType": 5126,
      "count": 3693,
      "max": [
        33.822509765625,
        100.3386001586914,
        27.372440338134766
      ],
      "min": [
        -35.64717102050781,
        -72.3074722290039,
        -11.621430397033691
      ],
      "type": "VEC3"
    },
    {
      "bufferView": 2,
      "byteOffset": 164724,
      "componentType": 5126,
      "count": 3693,
      "max": [
        1.0,
        1.0,
        1.0
      ],
      "min": [
        -1.0,
        -1.0,
        -1.0
      ],
      "type": "VEC3"
    },
    {
      "bufferView": 3,
      "byteOffset": 80272,
      "componentType": 5126,
      "count": 3693,
      "max": [
        1.0,
        1.0,
        1.0,
        1.0
      ],
      "min": [
        -1.0,
        -1.0,
        -1.0,
        1.0
      ],
      "type": "VEC4"
    },
    {
      "bufferView": 1,
      "byteOffset": 40136,
      "componentType": 5126,
      "count": 3693,
      "max": [
        0.9991093277931213,
        0.9879841208457947
      ],
      "min": [
        0.0008906489820219576,
        0.0008906489820219576
      ],
      "type": "VEC2"
    },
    {
      "bufferView": 0,
      "byteOffset": 59832,
      "componentType": 5125,
      "count": 10302,
      "type": "SCALAR"
    }
  ],
  "asset": {
    "extras": {
      "author": "AsG_Alligator (https://sketchfab.com/AsG_Alligator)",
      "license": "CC-BY-NC-4.0 (http://creativecommons.org/licenses/by-nc/4.0/)",
      "source": "https://sketchfab.com/3d-models/wrecked-fiat-125p-de35ebedca7d45329f36800ccdd3fb9f",
      "title": "Wrecked Fiat 125p"
    },
    "generator": "Sketchfab-12.64.0",
    "version": "2.0"
  },
  "bufferViews": [
    {
      "buffer": 0,
      "byteLength": 101040,
      "name": "floatBufferViews",
      "target": 34963
    },
    {
      "buffer": 0,
      "byteLength": 69680,
      "byteOffset": 101040,
      "byteStride": 8,
      "name": "floatBufferViews",
      "target": 34962
    },
    {
      "buffer": 0,
      "byteLength": 209040,
      "byteOffset": 170720,
      "byteStride": 12,
      "name": "floatBufferViews",
      "target": 34962
    },
    {
      "buffer": 0,
      "byteLength": 139360,
      "byteOffset": 379760,
      "byteStride": 16,
      "name": "floatBufferViews",
      "target": 34962
    }
  ],
  "buffers": [
    {
      "byteLength": 519120,
      "uri": "scene.bin"
    }
  ],
  "extensionsRequired": [
    "KHR_materials_pbrSpecularGlossiness"
  ],
  "extensionsUsed": [
    "KHR_materials_pbrSpecularGlossiness"
  ],
  "images": [
    {
      "uri": "textures/car125p_chassis_diffuse.png"
    },
    {
      "uri": "textures/car125p_chassis_specularGlossiness.png"
    },
    {
      "uri": "textures/car125p_chassis_normal.png"
    },
    {
      "uri": "textures/car125p_body_diffuse.png"
    },
    {
      "uri": "textures/car125p_body_specularGlossiness.png"
    },
    {
      "uri": "textures/car125p_body_normal.png"
    }
  ],
  "materials": [
    {
      "doubleSided": true,
      "extensions": {
        "KHR_materials_pbrSpecularGlossiness": {
          "diffuseFactor": [
            1.0,
            1.0,
            1.0,
            1.0
          ],
          "diffuseTexture": {
            "index": 0
          },
          "glossinessFactor": 1.0,
          "specularFactor": [
            1.0,
            1.0,
            1.0
          ],
          "specularGlossinessTexture": {
            "index": 1
          }
        }
      },
      "name": "car125p_chassis",
      "normalTexture": {
        "index": 2
      }
    },
    {
      "doubleSided": true,
      "extensions": {
        "KHR_materials_pbrSpecularGlossiness": {
          "diffuseFactor": [
            1.0,
            1.0,
            1.0,
            1.0
          ],
          "diffuseTexture": {
            "index": 3
          },
          "glossinessFactor": 1.0,
          "specularFactor": [
            0.3980564024390244,
            0.3980564024390244,
            0.3980564024390244
          ],
          "specularGlossinessTexture": {
            "index": 4
          }
        }
      },
      "name": "car125p_body",
      "normalTexture": {
        "index": 5
      }
    }
  ],
  "meshes": [
    {
      "name": "car125p_body-material",
      "primitives": [
        {
          "attributes": {
            "NORMAL": 1,
            "POSITION": 0,
            "TANGENT": 2,
            "TEXCOORD_0": 3
          },
          "indices": 4,
          "material": 1,
          "mode": 4
        }
      ]
    },
    {
      "name": "car125p_chassis-material",
      "primitives": [
        {
          "attributes": {
            "NORMAL": 6,
            "POSITION": 5,
            "TANGENT": 7,
            "TEXCOORD_0": 8
          },
          "indices": 9,
          "material": 0,
          "mode": 4
        }
      ]
    }
  ],
  "nodes": [
    {
      "children": [
        1
      ],
      "matrix": [
        1.0,
        0.0,
        0.0,
        0.0,
        0.0,
        2.220446049250313e-16,
        -1.0,
        0.0,
        0.0,
        1.0,
        2.220446049250313e-16,
        0.0,
        0.0,
        0.0,
        0.0,
        1.0
      ],
      "name": "Sketchfab_model"
    },
    {
      "children": [
        2,
        4
      ],
      "name": "Collada visual scene group"
    },
    {
      "children": [
        3
      ],
      "matrix": [
        7.54979e-08,
        0.0,
        -1.0,
        0.0,
        0.0,
        1.0,
        0.0,
        0.0,
        1.0,
        0.0,
        7.54979e-08,
        0.0,
        36.37822,
        3.057751,
        2.737416,
        1.0
      ],
      "name": "body"
    },
    {
      "mesh": 0,
      "name": "car125p_body-material"
    },
    {
      "children": [
        5
      ],
      "matrix": [
        1.0,
        0.0,
        0.0,
        0.0,
        0.0,
        1.0,
        0.0,
        0.0,
        0.0,
        0.0,
        1.0,
        0.0,
        0.9123268,
        0.01809883,
        -8.838295,
        1.0
      ],
      "name": "floor"
    },
    {
      "mesh": 1,
      "name": "car125p_chassis-material"
    }
  ],
  "samplers": [
    {
      "magFilter": 9729,
      "minFilter": 9987,
      "wrapS": 10497,
      "wrapT": 10497
    }
  ],
  "scene": 0,
  "scenes": [
    {
      "name": "Sketchfab_Scene",
      "nodes": [
        0
      ]
    }
  ],
  "textures": [
    {
      "sampler": 0,
      "source": 0
    },
    {
      "sampler": 0,
      "source": 1
    },
    {
      "sampler": 0,
      "source": 2
    },
    {
      "sampler": 0,
      "source": 3
    },
    {
      "sampler": 0,
      "source": 4
    },
    {
      "sampler": 0,
      "source": 5
    }
  ]
}
